<mxfile host="app.diagrams.net" modified="2023-05-06T19:14:57.531Z" agent="Mozilla/5.0 (Windows NT 10.0; Win64; x64) AppleWebKit/537.36 (KHTML, like Gecko) Chrome/113.0.0.0 Safari/537.36" etag="pUJCR2FVABs_CDj3Y0B_" version="21.2.9" type="device">
  <diagram name="Page-1" id="xqHeZiKq-_FqTKkOaI3a">
    <mxGraphModel dx="1173" dy="603" grid="1" gridSize="10" guides="1" tooltips="1" connect="1" arrows="1" fold="1" page="1" pageScale="1" pageWidth="827" pageHeight="1169" math="0" shadow="0">
      <root>
        <mxCell id="0" />
        <mxCell id="1" parent="0" />
        <mxCell id="oXhFuKc5tQe8eQyPICl8-121" style="edgeStyle=orthogonalEdgeStyle;rounded=0;orthogonalLoop=1;jettySize=auto;html=1;entryX=0.234;entryY=1.064;entryDx=0;entryDy=0;entryPerimeter=0;" parent="1" source="OrxpgzfxHumzW-EcyNMt-24" target="FqqwUGE8YhEeq_kceWww-6" edge="1">
          <mxGeometry relative="1" as="geometry">
            <Array as="points">
              <mxPoint x="640" y="440" />
              <mxPoint x="118" y="440" />
            </Array>
          </mxGeometry>
        </mxCell>
        <mxCell id="OrxpgzfxHumzW-EcyNMt-24" value="" style="shape=table;startSize=0;container=1;collapsible=0;childLayout=tableLayout;fontSize=20;" parent="1" vertex="1">
          <mxGeometry x="120" y="70" width="702" height="70" as="geometry" />
        </mxCell>
        <mxCell id="OrxpgzfxHumzW-EcyNMt-25" value="" style="shape=tableRow;horizontal=0;startSize=0;swimlaneHead=0;swimlaneBody=0;strokeColor=inherit;top=0;left=0;bottom=0;right=0;collapsible=0;dropTarget=0;fillColor=none;points=[[0,0.5],[1,0.5]];portConstraint=eastwest;fontSize=20;" parent="OrxpgzfxHumzW-EcyNMt-24" vertex="1">
          <mxGeometry width="702" height="70" as="geometry" />
        </mxCell>
        <mxCell id="OrxpgzfxHumzW-EcyNMt-26" value="&lt;font style=&quot;font-size: 19px;&quot;&gt;First_name&lt;/font&gt;" style="shape=partialRectangle;html=1;whiteSpace=wrap;connectable=0;strokeColor=inherit;overflow=hidden;fillColor=none;top=0;left=0;bottom=0;right=0;pointerEvents=1;fontSize=19;" parent="OrxpgzfxHumzW-EcyNMt-25" vertex="1">
          <mxGeometry width="105" height="70" as="geometry">
            <mxRectangle width="105" height="70" as="alternateBounds" />
          </mxGeometry>
        </mxCell>
        <mxCell id="OrxpgzfxHumzW-EcyNMt-27" value="Last_name" style="shape=partialRectangle;html=1;whiteSpace=wrap;connectable=0;strokeColor=inherit;overflow=hidden;fillColor=none;top=0;left=0;bottom=0;right=0;pointerEvents=1;fontSize=19;" parent="OrxpgzfxHumzW-EcyNMt-25" vertex="1">
          <mxGeometry x="105" width="105" height="70" as="geometry">
            <mxRectangle width="105" height="70" as="alternateBounds" />
          </mxGeometry>
        </mxCell>
        <mxCell id="OrxpgzfxHumzW-EcyNMt-28" value="Email" style="shape=partialRectangle;html=1;whiteSpace=wrap;connectable=0;strokeColor=inherit;overflow=hidden;fillColor=none;top=0;left=0;bottom=0;right=0;pointerEvents=1;fontSize=19;" parent="OrxpgzfxHumzW-EcyNMt-25" vertex="1">
          <mxGeometry x="210" width="65" height="70" as="geometry">
            <mxRectangle width="65" height="70" as="alternateBounds" />
          </mxGeometry>
        </mxCell>
        <mxCell id="OrxpgzfxHumzW-EcyNMt-29" value="Salary" style="shape=partialRectangle;html=1;whiteSpace=wrap;connectable=0;strokeColor=inherit;overflow=hidden;fillColor=none;top=0;left=0;bottom=0;right=0;pointerEvents=1;fontSize=19;" parent="OrxpgzfxHumzW-EcyNMt-25" vertex="1">
          <mxGeometry x="275" width="66" height="70" as="geometry">
            <mxRectangle width="66" height="70" as="alternateBounds" />
          </mxGeometry>
        </mxCell>
        <mxCell id="OrxpgzfxHumzW-EcyNMt-30" value="City" style="shape=partialRectangle;html=1;whiteSpace=wrap;connectable=0;strokeColor=inherit;overflow=hidden;fillColor=none;top=0;left=0;bottom=0;right=0;pointerEvents=1;fontSize=19;" parent="OrxpgzfxHumzW-EcyNMt-25" vertex="1">
          <mxGeometry x="341" width="66" height="70" as="geometry">
            <mxRectangle width="66" height="70" as="alternateBounds" />
          </mxGeometry>
        </mxCell>
        <mxCell id="OrxpgzfxHumzW-EcyNMt-31" value="Region" style="shape=partialRectangle;html=1;whiteSpace=wrap;connectable=0;strokeColor=inherit;overflow=hidden;fillColor=none;top=0;left=0;bottom=0;right=0;pointerEvents=1;fontSize=19;" parent="OrxpgzfxHumzW-EcyNMt-25" vertex="1">
          <mxGeometry x="407" width="86" height="70" as="geometry">
            <mxRectangle width="86" height="70" as="alternateBounds" />
          </mxGeometry>
        </mxCell>
        <mxCell id="OrxpgzfxHumzW-EcyNMt-32" value="" style="shape=partialRectangle;html=1;whiteSpace=wrap;connectable=0;strokeColor=inherit;overflow=hidden;fillColor=none;top=0;left=0;bottom=0;right=0;pointerEvents=1;fontSize=19;" parent="OrxpgzfxHumzW-EcyNMt-25" vertex="1">
          <mxGeometry x="493" width="-1" height="70" as="geometry">
            <mxRectangle width="-1" height="70" as="alternateBounds" />
          </mxGeometry>
        </mxCell>
        <mxCell id="OrxpgzfxHumzW-EcyNMt-33" value="Dept_id" style="shape=partialRectangle;html=1;whiteSpace=wrap;connectable=0;strokeColor=inherit;overflow=hidden;fillColor=none;top=0;left=0;bottom=0;right=0;pointerEvents=1;fontSize=20;" parent="OrxpgzfxHumzW-EcyNMt-25" vertex="1">
          <mxGeometry x="492" width="84" height="70" as="geometry">
            <mxRectangle width="84" height="70" as="alternateBounds" />
          </mxGeometry>
        </mxCell>
        <mxCell id="OrxpgzfxHumzW-EcyNMt-34" value="Sup_emp_id" style="shape=partialRectangle;html=1;whiteSpace=wrap;connectable=0;strokeColor=inherit;overflow=hidden;fillColor=none;top=0;left=0;bottom=0;right=0;pointerEvents=1;fontSize=20;" parent="OrxpgzfxHumzW-EcyNMt-25" vertex="1">
          <mxGeometry x="576" width="126" height="70" as="geometry">
            <mxRectangle width="126" height="70" as="alternateBounds" />
          </mxGeometry>
        </mxCell>
        <mxCell id="OrxpgzfxHumzW-EcyNMt-38" value="&lt;u&gt;Emp_id&lt;/u&gt;" style="rounded=0;whiteSpace=wrap;html=1;fontSize=19;" parent="1" vertex="1">
          <mxGeometry x="30" y="70" width="90" height="70" as="geometry" />
        </mxCell>
        <mxCell id="OrxpgzfxHumzW-EcyNMt-40" value="&lt;font style=&quot;font-size: 22px;&quot;&gt;Employee&lt;/font&gt;" style="text;html=1;strokeColor=none;fillColor=none;align=center;verticalAlign=middle;whiteSpace=wrap;rounded=0;" parent="1" vertex="1">
          <mxGeometry x="60" y="40" width="60" height="30" as="geometry" />
        </mxCell>
        <mxCell id="OrxpgzfxHumzW-EcyNMt-41" value="&lt;font style=&quot;font-size: 22px;&quot;&gt;Employee_Phone&lt;/font&gt;" style="text;html=1;strokeColor=none;fillColor=none;align=center;verticalAlign=middle;whiteSpace=wrap;rounded=0;" parent="1" vertex="1">
          <mxGeometry x="100" y="190" width="60" height="30" as="geometry" />
        </mxCell>
        <mxCell id="FqqwUGE8YhEeq_kceWww-1" value="" style="shape=table;startSize=0;container=1;collapsible=0;childLayout=tableLayout;fontSize=20;" parent="1" vertex="1">
          <mxGeometry x="40.5" y="220" width="179" height="61" as="geometry" />
        </mxCell>
        <mxCell id="FqqwUGE8YhEeq_kceWww-2" value="" style="shape=tableRow;horizontal=0;startSize=0;swimlaneHead=0;swimlaneBody=0;strokeColor=inherit;top=0;left=0;bottom=0;right=0;collapsible=0;dropTarget=0;fillColor=none;points=[[0,0.5],[1,0.5]];portConstraint=eastwest;fontSize=20;" parent="FqqwUGE8YhEeq_kceWww-1" vertex="1">
          <mxGeometry width="179" height="61" as="geometry" />
        </mxCell>
        <mxCell id="FqqwUGE8YhEeq_kceWww-3" value="&lt;u&gt;Emp_id&lt;/u&gt;" style="shape=partialRectangle;html=1;whiteSpace=wrap;connectable=0;strokeColor=inherit;overflow=hidden;fillColor=none;top=0;left=0;bottom=0;right=0;pointerEvents=1;fontSize=20;" parent="FqqwUGE8YhEeq_kceWww-2" vertex="1">
          <mxGeometry width="90" height="61" as="geometry">
            <mxRectangle width="90" height="61" as="alternateBounds" />
          </mxGeometry>
        </mxCell>
        <mxCell id="FqqwUGE8YhEeq_kceWww-4" value="&lt;u&gt;Phone&lt;/u&gt;" style="shape=partialRectangle;html=1;whiteSpace=wrap;connectable=0;strokeColor=inherit;overflow=hidden;fillColor=none;top=0;left=0;bottom=0;right=0;pointerEvents=1;fontSize=20;" parent="FqqwUGE8YhEeq_kceWww-2" vertex="1">
          <mxGeometry x="90" width="89" height="61" as="geometry">
            <mxRectangle width="89" height="61" as="alternateBounds" />
          </mxGeometry>
        </mxCell>
        <mxCell id="FqqwUGE8YhEeq_kceWww-5" value="" style="shape=table;startSize=0;container=1;collapsible=0;childLayout=tableLayout;fontSize=20;" parent="1" vertex="1">
          <mxGeometry x="50" y="340" width="290" height="65" as="geometry" />
        </mxCell>
        <mxCell id="FqqwUGE8YhEeq_kceWww-6" value="" style="shape=tableRow;horizontal=0;startSize=0;swimlaneHead=0;swimlaneBody=0;strokeColor=inherit;top=0;left=0;bottom=0;right=0;collapsible=0;dropTarget=0;fillColor=none;points=[[0,0.5],[1,0.5]];portConstraint=eastwest;fontSize=20;" parent="FqqwUGE8YhEeq_kceWww-5" vertex="1">
          <mxGeometry width="290" height="65" as="geometry" />
        </mxCell>
        <mxCell id="FqqwUGE8YhEeq_kceWww-7" value="&lt;u&gt;Dept_id&lt;/u&gt;" style="shape=partialRectangle;html=1;whiteSpace=wrap;connectable=0;strokeColor=inherit;overflow=hidden;fillColor=none;top=0;left=0;bottom=0;right=0;pointerEvents=1;fontSize=20;" parent="FqqwUGE8YhEeq_kceWww-6" vertex="1">
          <mxGeometry width="100" height="65" as="geometry">
            <mxRectangle width="100" height="65" as="alternateBounds" />
          </mxGeometry>
        </mxCell>
        <mxCell id="FqqwUGE8YhEeq_kceWww-8" value="name" style="shape=partialRectangle;html=1;whiteSpace=wrap;connectable=0;strokeColor=inherit;overflow=hidden;fillColor=none;top=0;left=0;bottom=0;right=0;pointerEvents=1;fontSize=20;" parent="FqqwUGE8YhEeq_kceWww-6" vertex="1">
          <mxGeometry x="100" width="80" height="65" as="geometry">
            <mxRectangle width="80" height="65" as="alternateBounds" />
          </mxGeometry>
        </mxCell>
        <mxCell id="FqqwUGE8YhEeq_kceWww-9" value="Manage_id" style="shape=partialRectangle;html=1;whiteSpace=wrap;connectable=0;strokeColor=inherit;overflow=hidden;fillColor=none;top=0;left=0;bottom=0;right=0;pointerEvents=1;fontSize=20;" parent="FqqwUGE8YhEeq_kceWww-6" vertex="1">
          <mxGeometry x="180" width="110" height="65" as="geometry">
            <mxRectangle width="110" height="65" as="alternateBounds" />
          </mxGeometry>
        </mxCell>
        <mxCell id="FqqwUGE8YhEeq_kceWww-10" value="&lt;span style=&quot;font-size: 22px;&quot;&gt;Department&lt;/span&gt;" style="text;html=1;strokeColor=none;fillColor=none;align=center;verticalAlign=middle;whiteSpace=wrap;rounded=0;" parent="1" vertex="1">
          <mxGeometry x="80" y="310" width="60" height="30" as="geometry" />
        </mxCell>
        <mxCell id="FqqwUGE8YhEeq_kceWww-11" value="&lt;span style=&quot;color: rgb(0, 0, 0); font-family: Helvetica; font-size: 22px; font-style: normal; font-variant-ligatures: normal; font-variant-caps: normal; font-weight: 400; letter-spacing: normal; orphans: 2; text-align: center; text-indent: 0px; text-transform: none; widows: 2; word-spacing: 0px; -webkit-text-stroke-width: 0px; background-color: rgb(251, 251, 251); text-decoration-thickness: initial; text-decoration-style: initial; text-decoration-color: initial; float: none; display: inline !important;&quot;&gt;Auther&lt;/span&gt;" style="text;whiteSpace=wrap;html=1;" parent="1" vertex="1">
          <mxGeometry x="50" y="450" width="130" height="50" as="geometry" />
        </mxCell>
        <mxCell id="FqqwUGE8YhEeq_kceWww-12" value="" style="shape=table;startSize=0;container=1;collapsible=0;childLayout=tableLayout;fontSize=20;" parent="1" vertex="1">
          <mxGeometry x="50" y="490" width="660" height="65" as="geometry" />
        </mxCell>
        <mxCell id="FqqwUGE8YhEeq_kceWww-13" value="" style="shape=tableRow;horizontal=0;startSize=0;swimlaneHead=0;swimlaneBody=0;strokeColor=inherit;top=0;left=0;bottom=0;right=0;collapsible=0;dropTarget=0;fillColor=none;points=[[0,0.5],[1,0.5]];portConstraint=eastwest;fontSize=20;" parent="FqqwUGE8YhEeq_kceWww-12" vertex="1">
          <mxGeometry width="660" height="65" as="geometry" />
        </mxCell>
        <mxCell id="FqqwUGE8YhEeq_kceWww-14" value="&lt;u&gt;Auther_id&lt;/u&gt;" style="shape=partialRectangle;html=1;whiteSpace=wrap;connectable=0;strokeColor=inherit;overflow=hidden;fillColor=none;top=0;left=0;bottom=0;right=0;pointerEvents=1;fontSize=20;" parent="FqqwUGE8YhEeq_kceWww-13" vertex="1">
          <mxGeometry width="110" height="65" as="geometry">
            <mxRectangle width="110" height="65" as="alternateBounds" />
          </mxGeometry>
        </mxCell>
        <mxCell id="FqqwUGE8YhEeq_kceWww-15" value="First_Name" style="shape=partialRectangle;html=1;whiteSpace=wrap;connectable=0;strokeColor=inherit;overflow=hidden;fillColor=none;top=0;left=0;bottom=0;right=0;pointerEvents=1;fontSize=20;" parent="FqqwUGE8YhEeq_kceWww-13" vertex="1">
          <mxGeometry x="110" width="110" height="65" as="geometry">
            <mxRectangle width="110" height="65" as="alternateBounds" />
          </mxGeometry>
        </mxCell>
        <mxCell id="FqqwUGE8YhEeq_kceWww-16" value="Last_Name" style="shape=partialRectangle;html=1;whiteSpace=wrap;connectable=0;strokeColor=inherit;overflow=hidden;fillColor=none;top=0;left=0;bottom=0;right=0;pointerEvents=1;fontSize=20;" parent="FqqwUGE8YhEeq_kceWww-13" vertex="1">
          <mxGeometry x="220" width="110" height="65" as="geometry">
            <mxRectangle width="110" height="65" as="alternateBounds" />
          </mxGeometry>
        </mxCell>
        <mxCell id="FqqwUGE8YhEeq_kceWww-17" value="Email" style="shape=partialRectangle;html=1;whiteSpace=wrap;connectable=0;strokeColor=inherit;overflow=hidden;fillColor=none;top=0;left=0;bottom=0;right=0;pointerEvents=1;fontSize=20;" parent="FqqwUGE8YhEeq_kceWww-13" vertex="1">
          <mxGeometry x="330" width="110" height="65" as="geometry">
            <mxRectangle width="110" height="65" as="alternateBounds" />
          </mxGeometry>
        </mxCell>
        <mxCell id="FqqwUGE8YhEeq_kceWww-18" value="City" style="shape=partialRectangle;html=1;whiteSpace=wrap;connectable=0;strokeColor=inherit;overflow=hidden;fillColor=none;top=0;left=0;bottom=0;right=0;pointerEvents=1;fontSize=20;" parent="FqqwUGE8YhEeq_kceWww-13" vertex="1">
          <mxGeometry x="440" width="110" height="65" as="geometry">
            <mxRectangle width="110" height="65" as="alternateBounds" />
          </mxGeometry>
        </mxCell>
        <mxCell id="FqqwUGE8YhEeq_kceWww-19" value="Region" style="shape=partialRectangle;html=1;whiteSpace=wrap;connectable=0;strokeColor=inherit;overflow=hidden;fillColor=none;top=0;left=0;bottom=0;right=0;pointerEvents=1;fontSize=20;" parent="FqqwUGE8YhEeq_kceWww-13" vertex="1">
          <mxGeometry x="550" width="110" height="65" as="geometry">
            <mxRectangle width="110" height="65" as="alternateBounds" />
          </mxGeometry>
        </mxCell>
        <mxCell id="FqqwUGE8YhEeq_kceWww-20" value="Auther_Phone" style="text;html=1;strokeColor=none;fillColor=none;align=center;verticalAlign=middle;whiteSpace=wrap;rounded=0;fontSize=22;" parent="1" vertex="1">
          <mxGeometry x="90" y="590" width="60" height="30" as="geometry" />
        </mxCell>
        <mxCell id="FqqwUGE8YhEeq_kceWww-21" value="" style="shape=table;startSize=0;container=1;collapsible=0;childLayout=tableLayout;fontSize=20;" parent="1" vertex="1">
          <mxGeometry x="47" y="620" width="210" height="61" as="geometry" />
        </mxCell>
        <mxCell id="FqqwUGE8YhEeq_kceWww-22" value="" style="shape=tableRow;horizontal=0;startSize=0;swimlaneHead=0;swimlaneBody=0;strokeColor=inherit;top=0;left=0;bottom=0;right=0;collapsible=0;dropTarget=0;fillColor=none;points=[[0,0.5],[1,0.5]];portConstraint=eastwest;fontSize=20;" parent="FqqwUGE8YhEeq_kceWww-21" vertex="1">
          <mxGeometry width="210" height="61" as="geometry" />
        </mxCell>
        <mxCell id="FqqwUGE8YhEeq_kceWww-23" value="&lt;u style=&quot;border-color: var(--border-color);&quot;&gt;Auther_id&lt;/u&gt;" style="shape=partialRectangle;html=1;whiteSpace=wrap;connectable=0;strokeColor=inherit;overflow=hidden;fillColor=none;top=0;left=0;bottom=0;right=0;pointerEvents=1;fontSize=20;" parent="FqqwUGE8YhEeq_kceWww-22" vertex="1">
          <mxGeometry width="110" height="61" as="geometry">
            <mxRectangle width="110" height="61" as="alternateBounds" />
          </mxGeometry>
        </mxCell>
        <mxCell id="FqqwUGE8YhEeq_kceWww-24" value="&lt;u&gt;Phone&lt;/u&gt;" style="shape=partialRectangle;html=1;whiteSpace=wrap;connectable=0;strokeColor=inherit;overflow=hidden;fillColor=none;top=0;left=0;bottom=0;right=0;pointerEvents=1;fontSize=20;" parent="FqqwUGE8YhEeq_kceWww-22" vertex="1">
          <mxGeometry x="110" width="100" height="61" as="geometry">
            <mxRectangle width="100" height="61" as="alternateBounds" />
          </mxGeometry>
        </mxCell>
        <mxCell id="FqqwUGE8YhEeq_kceWww-25" value="&lt;font style=&quot;font-size: 22px;&quot;&gt;Book&lt;/font&gt;" style="text;html=1;strokeColor=none;fillColor=none;align=center;verticalAlign=middle;whiteSpace=wrap;rounded=0;" parent="1" vertex="1">
          <mxGeometry x="60" y="720" width="60" height="30" as="geometry" />
        </mxCell>
        <mxCell id="FqqwUGE8YhEeq_kceWww-26" value="" style="shape=table;startSize=0;container=1;collapsible=0;childLayout=tableLayout;fontSize=20;" parent="1" vertex="1">
          <mxGeometry x="52" y="750" width="320" height="59" as="geometry" />
        </mxCell>
        <mxCell id="FqqwUGE8YhEeq_kceWww-27" value="" style="shape=tableRow;horizontal=0;startSize=0;swimlaneHead=0;swimlaneBody=0;strokeColor=inherit;top=0;left=0;bottom=0;right=0;collapsible=0;dropTarget=0;fillColor=none;points=[[0,0.5],[1,0.5]];portConstraint=eastwest;fontSize=20;" parent="FqqwUGE8YhEeq_kceWww-26" vertex="1">
          <mxGeometry width="320" height="59" as="geometry" />
        </mxCell>
        <mxCell id="FqqwUGE8YhEeq_kceWww-28" value="&lt;u&gt;Book_id&lt;/u&gt;" style="shape=partialRectangle;html=1;whiteSpace=wrap;connectable=0;strokeColor=inherit;overflow=hidden;fillColor=none;top=0;left=0;bottom=0;right=0;pointerEvents=1;fontSize=20;" parent="FqqwUGE8YhEeq_kceWww-27" vertex="1">
          <mxGeometry width="100" height="59" as="geometry">
            <mxRectangle width="100" height="59" as="alternateBounds" />
          </mxGeometry>
        </mxCell>
        <mxCell id="FqqwUGE8YhEeq_kceWww-29" value="Book_Title" style="shape=partialRectangle;html=1;whiteSpace=wrap;connectable=0;strokeColor=inherit;overflow=hidden;fillColor=none;top=0;left=0;bottom=0;right=0;pointerEvents=1;fontSize=20;" parent="FqqwUGE8YhEeq_kceWww-27" vertex="1">
          <mxGeometry x="100" width="110" height="59" as="geometry">
            <mxRectangle width="110" height="59" as="alternateBounds" />
          </mxGeometry>
        </mxCell>
        <mxCell id="FqqwUGE8YhEeq_kceWww-30" value="Contract_id" style="shape=partialRectangle;html=1;whiteSpace=wrap;connectable=0;strokeColor=inherit;overflow=hidden;fillColor=none;top=0;left=0;bottom=0;right=0;pointerEvents=1;fontSize=20;" parent="FqqwUGE8YhEeq_kceWww-27" vertex="1">
          <mxGeometry x="210" width="110" height="59" as="geometry">
            <mxRectangle width="110" height="59" as="alternateBounds" />
          </mxGeometry>
        </mxCell>
        <mxCell id="FqqwUGE8YhEeq_kceWww-31" value="&lt;span style=&quot;font-size: 22px;&quot;&gt;Book_Auther&lt;/span&gt;" style="text;html=1;strokeColor=none;fillColor=none;align=center;verticalAlign=middle;whiteSpace=wrap;rounded=0;" parent="1" vertex="1">
          <mxGeometry x="85" y="1150" width="60" height="30" as="geometry" />
        </mxCell>
        <mxCell id="FqqwUGE8YhEeq_kceWww-32" value="" style="shape=table;startSize=0;container=1;collapsible=0;childLayout=tableLayout;" parent="1" vertex="1">
          <mxGeometry x="55" y="1180" width="210" height="64" as="geometry" />
        </mxCell>
        <mxCell id="FqqwUGE8YhEeq_kceWww-33" value="" style="shape=tableRow;horizontal=0;startSize=0;swimlaneHead=0;swimlaneBody=0;strokeColor=inherit;top=0;left=0;bottom=0;right=0;collapsible=0;dropTarget=0;fillColor=none;points=[[0,0.5],[1,0.5]];portConstraint=eastwest;" parent="FqqwUGE8YhEeq_kceWww-32" vertex="1">
          <mxGeometry width="210" height="64" as="geometry" />
        </mxCell>
        <mxCell id="FqqwUGE8YhEeq_kceWww-34" value="&lt;u style=&quot;border-color: var(--border-color); font-size: 20px;&quot;&gt;Book_id&lt;/u&gt;" style="shape=partialRectangle;html=1;whiteSpace=wrap;connectable=0;strokeColor=inherit;overflow=hidden;fillColor=none;top=0;left=0;bottom=0;right=0;pointerEvents=1;" parent="FqqwUGE8YhEeq_kceWww-33" vertex="1">
          <mxGeometry width="105" height="64" as="geometry">
            <mxRectangle width="105" height="64" as="alternateBounds" />
          </mxGeometry>
        </mxCell>
        <mxCell id="FqqwUGE8YhEeq_kceWww-35" value="&lt;u style=&quot;border-color: var(--border-color); font-size: 20px;&quot;&gt;Auther_id&lt;/u&gt;" style="shape=partialRectangle;html=1;whiteSpace=wrap;connectable=0;strokeColor=inherit;overflow=hidden;fillColor=none;top=0;left=0;bottom=0;right=0;pointerEvents=1;" parent="FqqwUGE8YhEeq_kceWww-33" vertex="1">
          <mxGeometry x="105" width="105" height="64" as="geometry">
            <mxRectangle width="105" height="64" as="alternateBounds" />
          </mxGeometry>
        </mxCell>
        <mxCell id="FqqwUGE8YhEeq_kceWww-36" value="" style="shape=table;startSize=0;container=1;collapsible=0;childLayout=tableLayout;fontSize=20;" parent="1" vertex="1">
          <mxGeometry x="55" y="890" width="194" height="57" as="geometry" />
        </mxCell>
        <mxCell id="FqqwUGE8YhEeq_kceWww-37" value="" style="shape=tableRow;horizontal=0;startSize=0;swimlaneHead=0;swimlaneBody=0;strokeColor=inherit;top=0;left=0;bottom=0;right=0;collapsible=0;dropTarget=0;fillColor=none;points=[[0,0.5],[1,0.5]];portConstraint=eastwest;fontSize=20;" parent="FqqwUGE8YhEeq_kceWww-36" vertex="1">
          <mxGeometry width="194" height="57" as="geometry" />
        </mxCell>
        <mxCell id="FqqwUGE8YhEeq_kceWww-38" value="&lt;u style=&quot;border-color: var(--border-color);&quot;&gt;Book_id&lt;/u&gt;" style="shape=partialRectangle;html=1;whiteSpace=wrap;connectable=0;strokeColor=inherit;overflow=hidden;fillColor=none;top=0;left=0;bottom=0;right=0;pointerEvents=1;fontSize=20;" parent="FqqwUGE8YhEeq_kceWww-37" vertex="1">
          <mxGeometry width="94" height="57" as="geometry">
            <mxRectangle width="94" height="57" as="alternateBounds" />
          </mxGeometry>
        </mxCell>
        <mxCell id="FqqwUGE8YhEeq_kceWww-39" value="&lt;u&gt;Category&lt;/u&gt;" style="shape=partialRectangle;html=1;whiteSpace=wrap;connectable=0;strokeColor=inherit;overflow=hidden;fillColor=none;top=0;left=0;bottom=0;right=0;pointerEvents=1;fontSize=20;" parent="FqqwUGE8YhEeq_kceWww-37" vertex="1">
          <mxGeometry x="94" width="100" height="57" as="geometry">
            <mxRectangle width="100" height="57" as="alternateBounds" />
          </mxGeometry>
        </mxCell>
        <mxCell id="FqqwUGE8YhEeq_kceWww-40" value="&lt;font style=&quot;font-size: 22px;&quot;&gt;Book_Category&lt;/font&gt;" style="text;html=1;strokeColor=none;fillColor=none;align=center;verticalAlign=middle;whiteSpace=wrap;rounded=0;fontSize=20;" parent="1" vertex="1">
          <mxGeometry x="110" y="860" width="60" height="30" as="geometry" />
        </mxCell>
        <mxCell id="FqqwUGE8YhEeq_kceWww-41" value="&lt;font style=&quot;font-size: 22px;&quot;&gt;Contract&lt;/font&gt;" style="text;html=1;strokeColor=none;fillColor=none;align=center;verticalAlign=middle;whiteSpace=wrap;rounded=0;" parent="1" vertex="1">
          <mxGeometry x="80" y="1590" width="60" height="30" as="geometry" />
        </mxCell>
        <mxCell id="FqqwUGE8YhEeq_kceWww-42" value="" style="shape=table;startSize=0;container=1;collapsible=0;childLayout=tableLayout;fontSize=20;" parent="1" vertex="1">
          <mxGeometry x="60" y="1630" width="510" height="58" as="geometry" />
        </mxCell>
        <mxCell id="FqqwUGE8YhEeq_kceWww-43" value="" style="shape=tableRow;horizontal=0;startSize=0;swimlaneHead=0;swimlaneBody=0;strokeColor=inherit;top=0;left=0;bottom=0;right=0;collapsible=0;dropTarget=0;fillColor=none;points=[[0,0.5],[1,0.5]];portConstraint=eastwest;fontSize=20;" parent="FqqwUGE8YhEeq_kceWww-42" vertex="1">
          <mxGeometry width="510" height="58" as="geometry" />
        </mxCell>
        <mxCell id="FqqwUGE8YhEeq_kceWww-44" value="&lt;u&gt;Contract_id&lt;/u&gt;" style="shape=partialRectangle;html=1;whiteSpace=wrap;connectable=0;strokeColor=inherit;overflow=hidden;fillColor=none;top=0;left=0;bottom=0;right=0;pointerEvents=1;fontSize=20;" parent="FqqwUGE8YhEeq_kceWww-43" vertex="1">
          <mxGeometry width="110" height="58" as="geometry">
            <mxRectangle width="110" height="58" as="alternateBounds" />
          </mxGeometry>
        </mxCell>
        <mxCell id="FqqwUGE8YhEeq_kceWww-45" value="Terms" style="shape=partialRectangle;html=1;whiteSpace=wrap;connectable=0;strokeColor=inherit;overflow=hidden;fillColor=none;top=0;left=0;bottom=0;right=0;pointerEvents=1;fontSize=20;" parent="FqqwUGE8YhEeq_kceWww-43" vertex="1">
          <mxGeometry x="110" width="100" height="58" as="geometry">
            <mxRectangle width="100" height="58" as="alternateBounds" />
          </mxGeometry>
        </mxCell>
        <mxCell id="FqqwUGE8YhEeq_kceWww-46" value="C_Date" style="shape=partialRectangle;html=1;whiteSpace=wrap;connectable=0;strokeColor=inherit;overflow=hidden;fillColor=none;top=0;left=0;bottom=0;right=0;pointerEvents=1;fontSize=20;" parent="FqqwUGE8YhEeq_kceWww-43" vertex="1">
          <mxGeometry x="210" width="100" height="58" as="geometry">
            <mxRectangle width="100" height="58" as="alternateBounds" />
          </mxGeometry>
        </mxCell>
        <mxCell id="FqqwUGE8YhEeq_kceWww-47" value="Dept_id" style="shape=partialRectangle;html=1;whiteSpace=wrap;connectable=0;strokeColor=inherit;overflow=hidden;fillColor=none;top=0;left=0;bottom=0;right=0;pointerEvents=1;fontSize=20;" parent="FqqwUGE8YhEeq_kceWww-43" vertex="1">
          <mxGeometry x="310" width="100" height="58" as="geometry">
            <mxRectangle width="100" height="58" as="alternateBounds" />
          </mxGeometry>
        </mxCell>
        <mxCell id="oXhFuKc5tQe8eQyPICl8-144" value="Book_id" style="shape=partialRectangle;html=1;whiteSpace=wrap;connectable=0;strokeColor=inherit;overflow=hidden;fillColor=none;top=0;left=0;bottom=0;right=0;pointerEvents=1;fontSize=20;" parent="FqqwUGE8YhEeq_kceWww-43" vertex="1">
          <mxGeometry x="410" width="100" height="58" as="geometry">
            <mxRectangle width="100" height="58" as="alternateBounds" />
          </mxGeometry>
        </mxCell>
        <mxCell id="FqqwUGE8YhEeq_kceWww-48" value="&lt;font style=&quot;font-size: 22px;&quot;&gt;Book_Marker&lt;/font&gt;" style="text;html=1;strokeColor=none;fillColor=none;align=center;verticalAlign=middle;whiteSpace=wrap;rounded=0;" parent="1" vertex="1">
          <mxGeometry x="90" y="1000" width="60" height="30" as="geometry" />
        </mxCell>
        <mxCell id="FqqwUGE8YhEeq_kceWww-50" value="" style="shape=table;startSize=0;container=1;collapsible=0;childLayout=tableLayout;" parent="1" vertex="1">
          <mxGeometry x="58" y="1030" width="220" height="56" as="geometry" />
        </mxCell>
        <mxCell id="FqqwUGE8YhEeq_kceWww-51" value="" style="shape=tableRow;horizontal=0;startSize=0;swimlaneHead=0;swimlaneBody=0;strokeColor=inherit;top=0;left=0;bottom=0;right=0;collapsible=0;dropTarget=0;fillColor=none;points=[[0,0.5],[1,0.5]];portConstraint=eastwest;" parent="FqqwUGE8YhEeq_kceWww-50" vertex="1">
          <mxGeometry width="220" height="56" as="geometry" />
        </mxCell>
        <mxCell id="FqqwUGE8YhEeq_kceWww-52" value="&lt;u style=&quot;border-color: var(--border-color); font-size: 20px;&quot;&gt;Book_id&lt;/u&gt;" style="shape=partialRectangle;html=1;whiteSpace=wrap;connectable=0;strokeColor=inherit;overflow=hidden;fillColor=none;top=0;left=0;bottom=0;right=0;pointerEvents=1;" parent="FqqwUGE8YhEeq_kceWww-51" vertex="1">
          <mxGeometry width="110" height="56" as="geometry">
            <mxRectangle width="110" height="56" as="alternateBounds" />
          </mxGeometry>
        </mxCell>
        <mxCell id="FqqwUGE8YhEeq_kceWww-53" value="&lt;span style=&quot;border-color: var(--border-color); font-size: 19px;&quot;&gt;&lt;u&gt;Emp_id&lt;/u&gt;&lt;/span&gt;" style="shape=partialRectangle;html=1;whiteSpace=wrap;connectable=0;strokeColor=inherit;overflow=hidden;fillColor=none;top=0;left=0;bottom=0;right=0;pointerEvents=1;" parent="FqqwUGE8YhEeq_kceWww-51" vertex="1">
          <mxGeometry x="110" width="110" height="56" as="geometry">
            <mxRectangle width="110" height="56" as="alternateBounds" />
          </mxGeometry>
        </mxCell>
        <mxCell id="oXhFuKc5tQe8eQyPICl8-1" value="&lt;span style=&quot;font-size: 22px;&quot;&gt;Order&lt;/span&gt;" style="text;html=1;strokeColor=none;fillColor=none;align=center;verticalAlign=middle;whiteSpace=wrap;rounded=0;" parent="1" vertex="1">
          <mxGeometry x="55" y="1320" width="60" height="30" as="geometry" />
        </mxCell>
        <mxCell id="oXhFuKc5tQe8eQyPICl8-115" style="edgeStyle=orthogonalEdgeStyle;rounded=0;orthogonalLoop=1;jettySize=auto;html=1;entryX=0;entryY=0.5;entryDx=0;entryDy=0;exitX=0.471;exitY=0;exitDx=0;exitDy=0;exitPerimeter=0;" parent="1" source="oXhFuKc5tQe8eQyPICl8-3" target="FqqwUGE8YhEeq_kceWww-6" edge="1">
          <mxGeometry relative="1" as="geometry">
            <mxPoint x="290" y="1300" as="sourcePoint" />
            <Array as="points">
              <mxPoint x="310" y="1290" />
              <mxPoint x="10" y="1290" />
              <mxPoint x="10" y="372" />
            </Array>
          </mxGeometry>
        </mxCell>
        <mxCell id="oXhFuKc5tQe8eQyPICl8-2" value="" style="shape=table;startSize=0;container=1;collapsible=0;childLayout=tableLayout;fontSize=20;" parent="1" vertex="1">
          <mxGeometry x="47" y="1350" width="558" height="60" as="geometry" />
        </mxCell>
        <mxCell id="oXhFuKc5tQe8eQyPICl8-3" value="" style="shape=tableRow;horizontal=0;startSize=0;swimlaneHead=0;swimlaneBody=0;strokeColor=inherit;top=0;left=0;bottom=0;right=0;collapsible=0;dropTarget=0;fillColor=none;points=[[0,0.5],[1,0.5]];portConstraint=eastwest;fontSize=20;" parent="oXhFuKc5tQe8eQyPICl8-2" vertex="1">
          <mxGeometry width="558" height="60" as="geometry" />
        </mxCell>
        <mxCell id="oXhFuKc5tQe8eQyPICl8-4" value="&lt;u&gt;Order_id&lt;/u&gt;" style="shape=partialRectangle;html=1;whiteSpace=wrap;connectable=0;strokeColor=inherit;overflow=hidden;fillColor=none;top=0;left=0;bottom=0;right=0;pointerEvents=1;fontSize=20;" parent="oXhFuKc5tQe8eQyPICl8-3" vertex="1">
          <mxGeometry width="110" height="60" as="geometry">
            <mxRectangle width="110" height="60" as="alternateBounds" />
          </mxGeometry>
        </mxCell>
        <mxCell id="oXhFuKc5tQe8eQyPICl8-5" value="Order_date" style="shape=partialRectangle;html=1;whiteSpace=wrap;connectable=0;strokeColor=inherit;overflow=hidden;fillColor=none;top=0;left=0;bottom=0;right=0;pointerEvents=1;fontSize=20;" parent="oXhFuKc5tQe8eQyPICl8-3" vertex="1">
          <mxGeometry x="110" width="110" height="60" as="geometry">
            <mxRectangle width="110" height="60" as="alternateBounds" />
          </mxGeometry>
        </mxCell>
        <mxCell id="oXhFuKc5tQe8eQyPICl8-6" value="Dept_id" style="shape=partialRectangle;html=1;whiteSpace=wrap;connectable=0;strokeColor=inherit;overflow=hidden;fillColor=none;top=0;left=0;bottom=0;right=0;pointerEvents=1;fontSize=20;" parent="oXhFuKc5tQe8eQyPICl8-3" vertex="1">
          <mxGeometry x="220" width="103" height="60" as="geometry">
            <mxRectangle width="103" height="60" as="alternateBounds" />
          </mxGeometry>
        </mxCell>
        <mxCell id="oXhFuKc5tQe8eQyPICl8-7" value="BO_id" style="shape=partialRectangle;html=1;whiteSpace=wrap;connectable=0;strokeColor=inherit;overflow=hidden;fillColor=none;top=0;left=0;bottom=0;right=0;pointerEvents=1;fontSize=20;" parent="oXhFuKc5tQe8eQyPICl8-3" vertex="1">
          <mxGeometry x="323" width="99" height="60" as="geometry">
            <mxRectangle width="99" height="60" as="alternateBounds" />
          </mxGeometry>
        </mxCell>
        <mxCell id="oXhFuKc5tQe8eQyPICl8-8" value="Destributor_id" style="shape=partialRectangle;html=1;whiteSpace=wrap;connectable=0;strokeColor=inherit;overflow=hidden;fillColor=none;top=0;left=0;bottom=0;right=0;pointerEvents=1;fontSize=20;" parent="oXhFuKc5tQe8eQyPICl8-3" vertex="1">
          <mxGeometry x="422" width="136" height="60" as="geometry">
            <mxRectangle width="136" height="60" as="alternateBounds" />
          </mxGeometry>
        </mxCell>
        <mxCell id="oXhFuKc5tQe8eQyPICl8-134" style="edgeStyle=orthogonalEdgeStyle;rounded=0;orthogonalLoop=1;jettySize=auto;html=1;entryX=0.088;entryY=1.017;entryDx=0;entryDy=0;entryPerimeter=0;exitX=0.591;exitY=-0.07;exitDx=0;exitDy=0;exitPerimeter=0;" parent="1" source="oXhFuKc5tQe8eQyPICl8-14" target="FqqwUGE8YhEeq_kceWww-27" edge="1">
          <mxGeometry relative="1" as="geometry">
            <Array as="points">
              <mxPoint x="245" y="1460" />
              <mxPoint x="630" y="1460" />
              <mxPoint x="630" y="850" />
              <mxPoint x="80" y="850" />
            </Array>
          </mxGeometry>
        </mxCell>
        <mxCell id="oXhFuKc5tQe8eQyPICl8-13" value="" style="shape=table;startSize=0;container=1;collapsible=0;childLayout=tableLayout;fontSize=20;" parent="1" vertex="1">
          <mxGeometry x="50" y="1480" width="330" height="54" as="geometry" />
        </mxCell>
        <mxCell id="oXhFuKc5tQe8eQyPICl8-14" value="" style="shape=tableRow;horizontal=0;startSize=0;swimlaneHead=0;swimlaneBody=0;strokeColor=inherit;top=0;left=0;bottom=0;right=0;collapsible=0;dropTarget=0;fillColor=none;points=[[0,0.5],[1,0.5]];portConstraint=eastwest;fontSize=20;" parent="oXhFuKc5tQe8eQyPICl8-13" vertex="1">
          <mxGeometry width="330" height="54" as="geometry" />
        </mxCell>
        <mxCell id="oXhFuKc5tQe8eQyPICl8-15" value="&lt;u style=&quot;border-color: var(--border-color); font-size: 20px;&quot;&gt;Order_id&lt;/u&gt;" style="shape=partialRectangle;html=1;whiteSpace=wrap;connectable=0;strokeColor=inherit;overflow=hidden;fillColor=none;top=0;left=0;bottom=0;right=0;pointerEvents=1;fontSize=20;" parent="oXhFuKc5tQe8eQyPICl8-14" vertex="1">
          <mxGeometry width="110" height="54" as="geometry">
            <mxRectangle width="110" height="54" as="alternateBounds" />
          </mxGeometry>
        </mxCell>
        <mxCell id="oXhFuKc5tQe8eQyPICl8-16" value="&lt;u style=&quot;border-color: var(--border-color); font-size: 20px;&quot;&gt;Book_id&lt;/u&gt;" style="shape=partialRectangle;html=1;whiteSpace=wrap;connectable=0;strokeColor=inherit;overflow=hidden;fillColor=none;top=0;left=0;bottom=0;right=0;pointerEvents=1;fontSize=20;" parent="oXhFuKc5tQe8eQyPICl8-14" vertex="1">
          <mxGeometry x="110" width="110" height="54" as="geometry">
            <mxRectangle width="110" height="54" as="alternateBounds" />
          </mxGeometry>
        </mxCell>
        <mxCell id="oXhFuKc5tQe8eQyPICl8-17" value="Copies_NO" style="shape=partialRectangle;html=1;whiteSpace=wrap;connectable=0;strokeColor=inherit;overflow=hidden;fillColor=none;top=0;left=0;bottom=0;right=0;pointerEvents=1;fontSize=20;" parent="oXhFuKc5tQe8eQyPICl8-14" vertex="1">
          <mxGeometry x="220" width="110" height="54" as="geometry">
            <mxRectangle width="110" height="54" as="alternateBounds" />
          </mxGeometry>
        </mxCell>
        <mxCell id="oXhFuKc5tQe8eQyPICl8-18" value="&lt;span style=&quot;font-size: 22px;&quot;&gt;Order_Book&lt;/span&gt;" style="text;html=1;strokeColor=none;fillColor=none;align=center;verticalAlign=middle;whiteSpace=wrap;rounded=0;" parent="1" vertex="1">
          <mxGeometry x="110" y="1450" width="60" height="30" as="geometry" />
        </mxCell>
        <mxCell id="oXhFuKc5tQe8eQyPICl8-19" value="&lt;font style=&quot;font-size: 22px;&quot;&gt;Eddition&lt;/font&gt;" style="text;html=1;strokeColor=none;fillColor=none;align=center;verticalAlign=middle;whiteSpace=wrap;rounded=0;" parent="1" vertex="1">
          <mxGeometry x="80" y="1750" width="60" height="30" as="geometry" />
        </mxCell>
        <mxCell id="oXhFuKc5tQe8eQyPICl8-116" style="edgeStyle=orthogonalEdgeStyle;rounded=0;orthogonalLoop=1;jettySize=auto;html=1;entryX=0.094;entryY=1.031;entryDx=0;entryDy=0;entryPerimeter=0;" parent="1" source="oXhFuKc5tQe8eQyPICl8-20" target="oXhFuKc5tQe8eQyPICl8-52" edge="1">
          <mxGeometry relative="1" as="geometry">
            <mxPoint x="670" y="2750" as="targetPoint" />
            <Array as="points">
              <mxPoint x="770" y="2690" />
              <mxPoint x="117" y="2690" />
              <mxPoint x="117" y="2646" />
            </Array>
          </mxGeometry>
        </mxCell>
        <mxCell id="oXhFuKc5tQe8eQyPICl8-20" value="" style="shape=table;startSize=0;container=1;collapsible=0;childLayout=tableLayout;fontSize=19;" parent="1" vertex="1">
          <mxGeometry x="30" y="1790" width="781" height="52" as="geometry" />
        </mxCell>
        <mxCell id="oXhFuKc5tQe8eQyPICl8-21" value="" style="shape=tableRow;horizontal=0;startSize=0;swimlaneHead=0;swimlaneBody=0;strokeColor=inherit;top=0;left=0;bottom=0;right=0;collapsible=0;dropTarget=0;fillColor=none;points=[[0,0.5],[1,0.5]];portConstraint=eastwest;fontSize=19;" parent="oXhFuKc5tQe8eQyPICl8-20" vertex="1">
          <mxGeometry width="781" height="52" as="geometry" />
        </mxCell>
        <mxCell id="oXhFuKc5tQe8eQyPICl8-22" value="&lt;u&gt;Ed_Number&lt;/u&gt;" style="shape=partialRectangle;html=1;whiteSpace=wrap;connectable=0;strokeColor=inherit;overflow=hidden;fillColor=none;top=0;left=0;bottom=0;right=0;pointerEvents=1;fontSize=19;" parent="oXhFuKc5tQe8eQyPICl8-21" vertex="1">
          <mxGeometry width="110" height="52" as="geometry">
            <mxRectangle width="110" height="52" as="alternateBounds" />
          </mxGeometry>
        </mxCell>
        <mxCell id="oXhFuKc5tQe8eQyPICl8-23" value="Ed_Pages" style="shape=partialRectangle;html=1;whiteSpace=wrap;connectable=0;strokeColor=inherit;overflow=hidden;fillColor=none;top=0;left=0;bottom=0;right=0;pointerEvents=1;fontSize=19;" parent="oXhFuKc5tQe8eQyPICl8-21" vertex="1">
          <mxGeometry x="110" width="100" height="52" as="geometry">
            <mxRectangle width="100" height="52" as="alternateBounds" />
          </mxGeometry>
        </mxCell>
        <mxCell id="oXhFuKc5tQe8eQyPICl8-24" value="Paper_Type" style="shape=partialRectangle;html=1;whiteSpace=wrap;connectable=0;strokeColor=inherit;overflow=hidden;fillColor=none;top=0;left=0;bottom=0;right=0;pointerEvents=1;fontSize=19;" parent="oXhFuKc5tQe8eQyPICl8-21" vertex="1">
          <mxGeometry x="210" width="109" height="52" as="geometry">
            <mxRectangle width="109" height="52" as="alternateBounds" />
          </mxGeometry>
        </mxCell>
        <mxCell id="oXhFuKc5tQe8eQyPICl8-25" value="&lt;font style=&quot;font-size: 17px;&quot;&gt;Publish_date&lt;/font&gt;" style="shape=partialRectangle;html=1;whiteSpace=wrap;connectable=0;strokeColor=inherit;overflow=hidden;fillColor=none;top=0;left=0;bottom=0;right=0;pointerEvents=1;fontSize=19;" parent="oXhFuKc5tQe8eQyPICl8-21" vertex="1">
          <mxGeometry x="319" width="102" height="52" as="geometry">
            <mxRectangle width="102" height="52" as="alternateBounds" />
          </mxGeometry>
        </mxCell>
        <mxCell id="oXhFuKc5tQe8eQyPICl8-26" value="Ed_copies" style="shape=partialRectangle;html=1;whiteSpace=wrap;connectable=0;strokeColor=inherit;overflow=hidden;fillColor=none;top=0;left=0;bottom=0;right=0;pointerEvents=1;fontSize=19;" parent="oXhFuKc5tQe8eQyPICl8-21" vertex="1">
          <mxGeometry x="421" width="100" height="52" as="geometry">
            <mxRectangle width="100" height="52" as="alternateBounds" />
          </mxGeometry>
        </mxCell>
        <mxCell id="oXhFuKc5tQe8eQyPICl8-27" value="Copy_cost" style="shape=partialRectangle;html=1;whiteSpace=wrap;connectable=0;strokeColor=inherit;overflow=hidden;fillColor=none;top=0;left=0;bottom=0;right=0;pointerEvents=1;fontSize=19;" parent="oXhFuKc5tQe8eQyPICl8-21" vertex="1">
          <mxGeometry x="521" width="100" height="52" as="geometry">
            <mxRectangle width="100" height="52" as="alternateBounds" />
          </mxGeometry>
        </mxCell>
        <mxCell id="oXhFuKc5tQe8eQyPICl8-28" value="Book-id" style="shape=partialRectangle;html=1;whiteSpace=wrap;connectable=0;strokeColor=inherit;overflow=hidden;fillColor=none;top=0;left=0;bottom=0;right=0;pointerEvents=1;fontSize=19;" parent="oXhFuKc5tQe8eQyPICl8-21" vertex="1">
          <mxGeometry x="621" width="90" height="52" as="geometry">
            <mxRectangle width="90" height="52" as="alternateBounds" />
          </mxGeometry>
        </mxCell>
        <mxCell id="oXhFuKc5tQe8eQyPICl8-29" value="PH_id" style="shape=partialRectangle;html=1;whiteSpace=wrap;connectable=0;strokeColor=inherit;overflow=hidden;fillColor=none;top=0;left=0;bottom=0;right=0;pointerEvents=1;fontSize=19;" parent="oXhFuKc5tQe8eQyPICl8-21" vertex="1">
          <mxGeometry x="711" width="70" height="52" as="geometry">
            <mxRectangle width="70" height="52" as="alternateBounds" />
          </mxGeometry>
        </mxCell>
        <mxCell id="oXhFuKc5tQe8eQyPICl8-30" value="&lt;font style=&quot;font-size: 22px;&quot;&gt;Eddition_editors&lt;/font&gt;" style="text;html=1;strokeColor=none;fillColor=none;align=center;verticalAlign=middle;whiteSpace=wrap;rounded=0;" parent="1" vertex="1">
          <mxGeometry x="100" y="1890" width="60" height="30" as="geometry" />
        </mxCell>
        <mxCell id="oXhFuKc5tQe8eQyPICl8-32" value="" style="shape=table;startSize=0;container=1;collapsible=0;childLayout=tableLayout;fontSize=20;" parent="1" vertex="1">
          <mxGeometry x="50" y="1920" width="229" height="52" as="geometry" />
        </mxCell>
        <mxCell id="oXhFuKc5tQe8eQyPICl8-33" value="" style="shape=tableRow;horizontal=0;startSize=0;swimlaneHead=0;swimlaneBody=0;strokeColor=inherit;top=0;left=0;bottom=0;right=0;collapsible=0;dropTarget=0;fillColor=none;points=[[0,0.5],[1,0.5]];portConstraint=eastwest;fontSize=20;" parent="oXhFuKc5tQe8eQyPICl8-32" vertex="1">
          <mxGeometry width="229" height="52" as="geometry" />
        </mxCell>
        <mxCell id="oXhFuKc5tQe8eQyPICl8-34" value="&lt;u&gt;Ed_Number&lt;/u&gt;" style="shape=partialRectangle;html=1;whiteSpace=wrap;connectable=0;strokeColor=inherit;overflow=hidden;fillColor=none;top=0;left=0;bottom=0;right=0;pointerEvents=1;fontSize=20;" parent="oXhFuKc5tQe8eQyPICl8-33" vertex="1">
          <mxGeometry width="119" height="52" as="geometry">
            <mxRectangle width="119" height="52" as="alternateBounds" />
          </mxGeometry>
        </mxCell>
        <mxCell id="oXhFuKc5tQe8eQyPICl8-35" value="&lt;u&gt;Emp_id&lt;/u&gt;" style="shape=partialRectangle;html=1;whiteSpace=wrap;connectable=0;strokeColor=inherit;overflow=hidden;fillColor=none;top=0;left=0;bottom=0;right=0;pointerEvents=1;fontSize=20;" parent="oXhFuKc5tQe8eQyPICl8-33" vertex="1">
          <mxGeometry x="119" width="110" height="52" as="geometry">
            <mxRectangle width="110" height="52" as="alternateBounds" />
          </mxGeometry>
        </mxCell>
        <mxCell id="oXhFuKc5tQe8eQyPICl8-36" value="&lt;span style=&quot;font-size: 22px;&quot;&gt;Book_outlet&lt;br&gt;&lt;/span&gt;" style="text;html=1;strokeColor=none;fillColor=none;align=center;verticalAlign=middle;whiteSpace=wrap;rounded=0;" parent="1" vertex="1">
          <mxGeometry x="100" y="2000" width="60" height="30" as="geometry" />
        </mxCell>
        <mxCell id="oXhFuKc5tQe8eQyPICl8-37" value="" style="shape=table;startSize=0;container=1;collapsible=0;childLayout=tableLayout;fontSize=20;" parent="1" vertex="1">
          <mxGeometry x="50" y="2040" width="500" height="54" as="geometry" />
        </mxCell>
        <mxCell id="oXhFuKc5tQe8eQyPICl8-38" value="" style="shape=tableRow;horizontal=0;startSize=0;swimlaneHead=0;swimlaneBody=0;strokeColor=inherit;top=0;left=0;bottom=0;right=0;collapsible=0;dropTarget=0;fillColor=none;points=[[0,0.5],[1,0.5]];portConstraint=eastwest;fontSize=20;" parent="oXhFuKc5tQe8eQyPICl8-37" vertex="1">
          <mxGeometry width="500" height="54" as="geometry" />
        </mxCell>
        <mxCell id="oXhFuKc5tQe8eQyPICl8-39" value="&lt;u&gt;BO_id&lt;/u&gt;" style="shape=partialRectangle;html=1;whiteSpace=wrap;connectable=0;strokeColor=inherit;overflow=hidden;fillColor=none;top=0;left=0;bottom=0;right=0;pointerEvents=1;fontSize=20;" parent="oXhFuKc5tQe8eQyPICl8-38" vertex="1">
          <mxGeometry width="100" height="54" as="geometry">
            <mxRectangle width="100" height="54" as="alternateBounds" />
          </mxGeometry>
        </mxCell>
        <mxCell id="oXhFuKc5tQe8eQyPICl8-40" value="Name" style="shape=partialRectangle;html=1;whiteSpace=wrap;connectable=0;strokeColor=inherit;overflow=hidden;fillColor=none;top=0;left=0;bottom=0;right=0;pointerEvents=1;fontSize=20;" parent="oXhFuKc5tQe8eQyPICl8-38" vertex="1">
          <mxGeometry x="100" width="100" height="54" as="geometry">
            <mxRectangle width="100" height="54" as="alternateBounds" />
          </mxGeometry>
        </mxCell>
        <mxCell id="oXhFuKc5tQe8eQyPICl8-41" value="City" style="shape=partialRectangle;html=1;whiteSpace=wrap;connectable=0;strokeColor=inherit;overflow=hidden;fillColor=none;top=0;left=0;bottom=0;right=0;pointerEvents=1;fontSize=20;" parent="oXhFuKc5tQe8eQyPICl8-38" vertex="1">
          <mxGeometry x="200" width="100" height="54" as="geometry">
            <mxRectangle width="100" height="54" as="alternateBounds" />
          </mxGeometry>
        </mxCell>
        <mxCell id="oXhFuKc5tQe8eQyPICl8-42" value="Region" style="shape=partialRectangle;html=1;whiteSpace=wrap;connectable=0;strokeColor=inherit;overflow=hidden;fillColor=none;top=0;left=0;bottom=0;right=0;pointerEvents=1;fontSize=20;" parent="oXhFuKc5tQe8eQyPICl8-38" vertex="1">
          <mxGeometry x="300" width="100" height="54" as="geometry">
            <mxRectangle width="100" height="54" as="alternateBounds" />
          </mxGeometry>
        </mxCell>
        <mxCell id="oXhFuKc5tQe8eQyPICl8-43" value="Email" style="shape=partialRectangle;html=1;whiteSpace=wrap;connectable=0;strokeColor=inherit;overflow=hidden;fillColor=none;top=0;left=0;bottom=0;right=0;pointerEvents=1;fontSize=20;" parent="oXhFuKc5tQe8eQyPICl8-38" vertex="1">
          <mxGeometry x="400" width="100" height="54" as="geometry">
            <mxRectangle width="100" height="54" as="alternateBounds" />
          </mxGeometry>
        </mxCell>
        <mxCell id="oXhFuKc5tQe8eQyPICl8-44" value="&lt;font style=&quot;font-size: 22px;&quot;&gt;Book_outlet_Phone&lt;/font&gt;" style="text;html=1;strokeColor=none;fillColor=none;align=center;verticalAlign=middle;whiteSpace=wrap;rounded=0;" parent="1" vertex="1">
          <mxGeometry x="125" y="2140" width="60" height="30" as="geometry" />
        </mxCell>
        <mxCell id="oXhFuKc5tQe8eQyPICl8-112" style="edgeStyle=orthogonalEdgeStyle;rounded=0;orthogonalLoop=1;jettySize=auto;html=1;entryX=0;entryY=0.5;entryDx=0;entryDy=0;" parent="1" source="oXhFuKc5tQe8eQyPICl8-45" target="oXhFuKc5tQe8eQyPICl8-38" edge="1">
          <mxGeometry relative="1" as="geometry">
            <Array as="points">
              <mxPoint x="20" y="2196" />
              <mxPoint x="20" y="2067" />
            </Array>
          </mxGeometry>
        </mxCell>
        <mxCell id="oXhFuKc5tQe8eQyPICl8-45" value="" style="shape=table;startSize=0;container=1;collapsible=0;childLayout=tableLayout;fontSize=20;" parent="1" vertex="1">
          <mxGeometry x="52" y="2170" width="200" height="53" as="geometry" />
        </mxCell>
        <mxCell id="oXhFuKc5tQe8eQyPICl8-46" value="" style="shape=tableRow;horizontal=0;startSize=0;swimlaneHead=0;swimlaneBody=0;strokeColor=inherit;top=0;left=0;bottom=0;right=0;collapsible=0;dropTarget=0;fillColor=none;points=[[0,0.5],[1,0.5]];portConstraint=eastwest;fontSize=20;" parent="oXhFuKc5tQe8eQyPICl8-45" vertex="1">
          <mxGeometry width="200" height="53" as="geometry" />
        </mxCell>
        <mxCell id="oXhFuKc5tQe8eQyPICl8-47" value="&lt;u style=&quot;border-color: var(--border-color); font-size: 20px;&quot;&gt;BO_id&lt;/u&gt;" style="shape=partialRectangle;html=1;whiteSpace=wrap;connectable=0;strokeColor=inherit;overflow=hidden;fillColor=none;top=0;left=0;bottom=0;right=0;pointerEvents=1;fontSize=20;" parent="oXhFuKc5tQe8eQyPICl8-46" vertex="1">
          <mxGeometry width="100" height="53" as="geometry">
            <mxRectangle width="100" height="53" as="alternateBounds" />
          </mxGeometry>
        </mxCell>
        <mxCell id="oXhFuKc5tQe8eQyPICl8-48" value="&lt;u&gt;Phone&lt;/u&gt;" style="shape=partialRectangle;html=1;whiteSpace=wrap;connectable=0;strokeColor=inherit;overflow=hidden;fillColor=none;top=0;left=0;bottom=0;right=0;pointerEvents=1;fontSize=20;" parent="oXhFuKc5tQe8eQyPICl8-46" vertex="1">
          <mxGeometry x="100" width="100" height="53" as="geometry">
            <mxRectangle width="100" height="53" as="alternateBounds" />
          </mxGeometry>
        </mxCell>
        <mxCell id="oXhFuKc5tQe8eQyPICl8-50" value="&lt;font style=&quot;font-size: 22px;&quot;&gt;Printing_House&lt;/font&gt;" style="text;html=1;strokeColor=none;fillColor=none;align=center;verticalAlign=middle;whiteSpace=wrap;rounded=0;" parent="1" vertex="1">
          <mxGeometry x="120" y="2560" width="60" height="30" as="geometry" />
        </mxCell>
        <mxCell id="oXhFuKc5tQe8eQyPICl8-51" value="" style="shape=table;startSize=0;container=1;collapsible=0;childLayout=tableLayout;fontSize=20;" parent="1" vertex="1">
          <mxGeometry x="75" y="2590" width="500" height="54" as="geometry" />
        </mxCell>
        <mxCell id="oXhFuKc5tQe8eQyPICl8-52" value="" style="shape=tableRow;horizontal=0;startSize=0;swimlaneHead=0;swimlaneBody=0;strokeColor=inherit;top=0;left=0;bottom=0;right=0;collapsible=0;dropTarget=0;fillColor=none;points=[[0,0.5],[1,0.5]];portConstraint=eastwest;fontSize=20;" parent="oXhFuKc5tQe8eQyPICl8-51" vertex="1">
          <mxGeometry width="500" height="54" as="geometry" />
        </mxCell>
        <mxCell id="oXhFuKc5tQe8eQyPICl8-53" value="&lt;u&gt;PH_id&lt;/u&gt;" style="shape=partialRectangle;html=1;whiteSpace=wrap;connectable=0;strokeColor=inherit;overflow=hidden;fillColor=none;top=0;left=0;bottom=0;right=0;pointerEvents=1;fontSize=20;" parent="oXhFuKc5tQe8eQyPICl8-52" vertex="1">
          <mxGeometry width="100" height="54" as="geometry">
            <mxRectangle width="100" height="54" as="alternateBounds" />
          </mxGeometry>
        </mxCell>
        <mxCell id="oXhFuKc5tQe8eQyPICl8-54" value="Name" style="shape=partialRectangle;html=1;whiteSpace=wrap;connectable=0;strokeColor=inherit;overflow=hidden;fillColor=none;top=0;left=0;bottom=0;right=0;pointerEvents=1;fontSize=20;" parent="oXhFuKc5tQe8eQyPICl8-52" vertex="1">
          <mxGeometry x="100" width="100" height="54" as="geometry">
            <mxRectangle width="100" height="54" as="alternateBounds" />
          </mxGeometry>
        </mxCell>
        <mxCell id="oXhFuKc5tQe8eQyPICl8-55" value="City" style="shape=partialRectangle;html=1;whiteSpace=wrap;connectable=0;strokeColor=inherit;overflow=hidden;fillColor=none;top=0;left=0;bottom=0;right=0;pointerEvents=1;fontSize=20;" parent="oXhFuKc5tQe8eQyPICl8-52" vertex="1">
          <mxGeometry x="200" width="100" height="54" as="geometry">
            <mxRectangle width="100" height="54" as="alternateBounds" />
          </mxGeometry>
        </mxCell>
        <mxCell id="oXhFuKc5tQe8eQyPICl8-56" value="Region" style="shape=partialRectangle;html=1;whiteSpace=wrap;connectable=0;strokeColor=inherit;overflow=hidden;fillColor=none;top=0;left=0;bottom=0;right=0;pointerEvents=1;fontSize=20;" parent="oXhFuKc5tQe8eQyPICl8-52" vertex="1">
          <mxGeometry x="300" width="100" height="54" as="geometry">
            <mxRectangle width="100" height="54" as="alternateBounds" />
          </mxGeometry>
        </mxCell>
        <mxCell id="oXhFuKc5tQe8eQyPICl8-57" value="Email" style="shape=partialRectangle;html=1;whiteSpace=wrap;connectable=0;strokeColor=inherit;overflow=hidden;fillColor=none;top=0;left=0;bottom=0;right=0;pointerEvents=1;fontSize=20;" parent="oXhFuKc5tQe8eQyPICl8-52" vertex="1">
          <mxGeometry x="400" width="100" height="54" as="geometry">
            <mxRectangle width="100" height="54" as="alternateBounds" />
          </mxGeometry>
        </mxCell>
        <mxCell id="oXhFuKc5tQe8eQyPICl8-58" value="&lt;font style=&quot;font-size: 22px;&quot;&gt;Distributor&lt;/font&gt;" style="text;html=1;strokeColor=none;fillColor=none;align=center;verticalAlign=middle;whiteSpace=wrap;rounded=0;" parent="1" vertex="1">
          <mxGeometry x="85" y="2300" width="60" height="30" as="geometry" />
        </mxCell>
        <mxCell id="oXhFuKc5tQe8eQyPICl8-60" value="" style="shape=table;startSize=0;container=1;collapsible=0;childLayout=tableLayout;fontSize=19;" parent="1" vertex="1">
          <mxGeometry x="50" y="2338" width="424" height="52" as="geometry" />
        </mxCell>
        <mxCell id="oXhFuKc5tQe8eQyPICl8-61" value="" style="shape=tableRow;horizontal=0;startSize=0;swimlaneHead=0;swimlaneBody=0;strokeColor=inherit;top=0;left=0;bottom=0;right=0;collapsible=0;dropTarget=0;fillColor=none;points=[[0,0.5],[1,0.5]];portConstraint=eastwest;fontSize=19;" parent="oXhFuKc5tQe8eQyPICl8-60" vertex="1">
          <mxGeometry width="424" height="52" as="geometry" />
        </mxCell>
        <mxCell id="oXhFuKc5tQe8eQyPICl8-62" value="&lt;u&gt;Distributor_id&lt;/u&gt;" style="shape=partialRectangle;html=1;whiteSpace=wrap;connectable=0;strokeColor=inherit;overflow=hidden;fillColor=none;top=0;left=0;bottom=0;right=0;pointerEvents=1;fontSize=19;" parent="oXhFuKc5tQe8eQyPICl8-61" vertex="1">
          <mxGeometry width="124" height="52" as="geometry">
            <mxRectangle width="124" height="52" as="alternateBounds" />
          </mxGeometry>
        </mxCell>
        <mxCell id="oXhFuKc5tQe8eQyPICl8-63" value="Name" style="shape=partialRectangle;html=1;whiteSpace=wrap;connectable=0;strokeColor=inherit;overflow=hidden;fillColor=none;top=0;left=0;bottom=0;right=0;pointerEvents=1;fontSize=19;" parent="oXhFuKc5tQe8eQyPICl8-61" vertex="1">
          <mxGeometry x="124" width="100" height="52" as="geometry">
            <mxRectangle width="100" height="52" as="alternateBounds" />
          </mxGeometry>
        </mxCell>
        <mxCell id="oXhFuKc5tQe8eQyPICl8-64" value="City" style="shape=partialRectangle;html=1;whiteSpace=wrap;connectable=0;strokeColor=inherit;overflow=hidden;fillColor=none;top=0;left=0;bottom=0;right=0;pointerEvents=1;fontSize=19;" parent="oXhFuKc5tQe8eQyPICl8-61" vertex="1">
          <mxGeometry x="224" width="100" height="52" as="geometry">
            <mxRectangle width="100" height="52" as="alternateBounds" />
          </mxGeometry>
        </mxCell>
        <mxCell id="oXhFuKc5tQe8eQyPICl8-65" value="Region" style="shape=partialRectangle;html=1;whiteSpace=wrap;connectable=0;strokeColor=inherit;overflow=hidden;fillColor=none;top=0;left=0;bottom=0;right=0;pointerEvents=1;fontSize=19;" parent="oXhFuKc5tQe8eQyPICl8-61" vertex="1">
          <mxGeometry x="324" width="100" height="52" as="geometry">
            <mxRectangle width="100" height="52" as="alternateBounds" />
          </mxGeometry>
        </mxCell>
        <mxCell id="oXhFuKc5tQe8eQyPICl8-66" value="&lt;span style=&quot;color: rgb(0, 0, 0); font-family: Helvetica; font-size: 22px; font-style: normal; font-variant-ligatures: normal; font-variant-caps: normal; font-weight: 400; letter-spacing: normal; orphans: 2; text-align: center; text-indent: 0px; text-transform: none; widows: 2; word-spacing: 0px; -webkit-text-stroke-width: 0px; background-color: rgb(251, 251, 251); text-decoration-thickness: initial; text-decoration-style: initial; text-decoration-color: initial; float: none; display: inline !important;&quot;&gt;Distributor_Phone&lt;/span&gt;" style="text;whiteSpace=wrap;html=1;" parent="1" vertex="1">
          <mxGeometry x="65" y="2450" width="130" height="50" as="geometry" />
        </mxCell>
        <mxCell id="oXhFuKc5tQe8eQyPICl8-68" value="" style="shape=table;startSize=0;container=1;collapsible=0;childLayout=tableLayout;fontSize=20;" parent="1" vertex="1">
          <mxGeometry x="70" y="2490" width="226" height="52" as="geometry" />
        </mxCell>
        <mxCell id="oXhFuKc5tQe8eQyPICl8-69" value="" style="shape=tableRow;horizontal=0;startSize=0;swimlaneHead=0;swimlaneBody=0;strokeColor=inherit;top=0;left=0;bottom=0;right=0;collapsible=0;dropTarget=0;fillColor=none;points=[[0,0.5],[1,0.5]];portConstraint=eastwest;fontSize=20;" parent="oXhFuKc5tQe8eQyPICl8-68" vertex="1">
          <mxGeometry width="226" height="52" as="geometry" />
        </mxCell>
        <mxCell id="oXhFuKc5tQe8eQyPICl8-70" value="&lt;u&gt;Distributor_id&lt;/u&gt;" style="shape=partialRectangle;html=1;whiteSpace=wrap;connectable=0;strokeColor=inherit;overflow=hidden;fillColor=none;top=0;left=0;bottom=0;right=0;pointerEvents=1;fontSize=20;" parent="oXhFuKc5tQe8eQyPICl8-69" vertex="1">
          <mxGeometry width="126" height="52" as="geometry">
            <mxRectangle width="126" height="52" as="alternateBounds" />
          </mxGeometry>
        </mxCell>
        <mxCell id="oXhFuKc5tQe8eQyPICl8-71" value="&lt;u&gt;Phone&lt;/u&gt;" style="shape=partialRectangle;html=1;whiteSpace=wrap;connectable=0;strokeColor=inherit;overflow=hidden;fillColor=none;top=0;left=0;bottom=0;right=0;pointerEvents=1;fontSize=20;" parent="oXhFuKc5tQe8eQyPICl8-69" vertex="1">
          <mxGeometry x="126" width="100" height="52" as="geometry">
            <mxRectangle width="100" height="52" as="alternateBounds" />
          </mxGeometry>
        </mxCell>
        <mxCell id="oXhFuKc5tQe8eQyPICl8-72" value="&lt;font style=&quot;font-size: 22px;&quot;&gt;Printing_House_Phone&lt;/font&gt;" style="text;html=1;strokeColor=none;fillColor=none;align=center;verticalAlign=middle;whiteSpace=wrap;rounded=0;" parent="1" vertex="1">
          <mxGeometry x="192" y="2720" width="60" height="30" as="geometry" />
        </mxCell>
        <mxCell id="oXhFuKc5tQe8eQyPICl8-91" value="" style="shape=table;startSize=0;container=1;collapsible=0;childLayout=tableLayout;" parent="1" vertex="1">
          <mxGeometry x="83" y="2740" width="200" height="52" as="geometry" />
        </mxCell>
        <mxCell id="oXhFuKc5tQe8eQyPICl8-92" value="" style="shape=tableRow;horizontal=0;startSize=0;swimlaneHead=0;swimlaneBody=0;strokeColor=inherit;top=0;left=0;bottom=0;right=0;collapsible=0;dropTarget=0;fillColor=none;points=[[0,0.5],[1,0.5]];portConstraint=eastwest;" parent="oXhFuKc5tQe8eQyPICl8-91" vertex="1">
          <mxGeometry width="200" height="52" as="geometry" />
        </mxCell>
        <mxCell id="oXhFuKc5tQe8eQyPICl8-93" value="&lt;u style=&quot;border-color: var(--border-color); font-size: 20px;&quot;&gt;PH_id&lt;/u&gt;" style="shape=partialRectangle;html=1;whiteSpace=wrap;connectable=0;strokeColor=inherit;overflow=hidden;fillColor=none;top=0;left=0;bottom=0;right=0;pointerEvents=1;" parent="oXhFuKc5tQe8eQyPICl8-92" vertex="1">
          <mxGeometry width="100" height="52" as="geometry">
            <mxRectangle width="100" height="52" as="alternateBounds" />
          </mxGeometry>
        </mxCell>
        <mxCell id="oXhFuKc5tQe8eQyPICl8-94" value="&#xa;&lt;u style=&quot;border-color: var(--border-color); color: rgb(0, 0, 0); font-family: Helvetica; font-size: 20px; font-style: normal; font-variant-ligatures: normal; font-variant-caps: normal; font-weight: 400; letter-spacing: normal; orphans: 2; text-align: center; text-indent: 0px; text-transform: none; widows: 2; word-spacing: 0px; -webkit-text-stroke-width: 0px; background-color: rgb(251, 251, 251);&quot;&gt;Phone&lt;/u&gt;&#xa;&#xa;" style="shape=partialRectangle;html=1;whiteSpace=wrap;connectable=0;strokeColor=inherit;overflow=hidden;fillColor=none;top=0;left=0;bottom=0;right=0;pointerEvents=1;" parent="oXhFuKc5tQe8eQyPICl8-92" vertex="1">
          <mxGeometry x="100" width="100" height="52" as="geometry">
            <mxRectangle width="100" height="52" as="alternateBounds" />
          </mxGeometry>
        </mxCell>
        <mxCell id="oXhFuKc5tQe8eQyPICl8-100" value="" style="shape=table;startSize=0;container=1;collapsible=0;childLayout=tableLayout;" parent="1" vertex="1">
          <mxGeometry x="69.5" y="2840" width="305" height="50" as="geometry" />
        </mxCell>
        <mxCell id="oXhFuKc5tQe8eQyPICl8-101" value="" style="shape=tableRow;horizontal=0;startSize=0;swimlaneHead=0;swimlaneBody=0;strokeColor=inherit;top=0;left=0;bottom=0;right=0;collapsible=0;dropTarget=0;fillColor=none;points=[[0,0.5],[1,0.5]];portConstraint=eastwest;" parent="oXhFuKc5tQe8eQyPICl8-100" vertex="1">
          <mxGeometry width="305" height="50" as="geometry" />
        </mxCell>
        <mxCell id="oXhFuKc5tQe8eQyPICl8-102" value="&lt;u style=&quot;border-color: var(--border-color); font-size: 20px;&quot;&gt;PH_id&lt;/u&gt;" style="shape=partialRectangle;html=1;whiteSpace=wrap;connectable=0;strokeColor=inherit;overflow=hidden;fillColor=none;top=0;left=0;bottom=0;right=0;pointerEvents=1;" parent="oXhFuKc5tQe8eQyPICl8-101" vertex="1">
          <mxGeometry width="102" height="50" as="geometry">
            <mxRectangle width="102" height="50" as="alternateBounds" />
          </mxGeometry>
        </mxCell>
        <mxCell id="oXhFuKc5tQe8eQyPICl8-103" value="&lt;u&gt;type&lt;/u&gt;" style="shape=partialRectangle;html=1;whiteSpace=wrap;connectable=0;strokeColor=inherit;overflow=hidden;fillColor=none;top=0;left=0;bottom=0;right=0;pointerEvents=1;fontSize=20;" parent="oXhFuKc5tQe8eQyPICl8-101" vertex="1">
          <mxGeometry x="102" width="101" height="50" as="geometry">
            <mxRectangle width="101" height="50" as="alternateBounds" />
          </mxGeometry>
        </mxCell>
        <mxCell id="oXhFuKc5tQe8eQyPICl8-104" value="Cost" style="shape=partialRectangle;html=1;whiteSpace=wrap;connectable=0;strokeColor=inherit;overflow=hidden;fillColor=none;top=0;left=0;bottom=0;right=0;pointerEvents=1;fontSize=20;" parent="oXhFuKc5tQe8eQyPICl8-101" vertex="1">
          <mxGeometry x="203" width="102" height="50" as="geometry">
            <mxRectangle width="102" height="50" as="alternateBounds" />
          </mxGeometry>
        </mxCell>
        <mxCell id="oXhFuKc5tQe8eQyPICl8-105" value="&lt;font style=&quot;font-size: 22px;&quot;&gt;Paper_type&lt;/font&gt;" style="text;html=1;strokeColor=none;fillColor=none;align=center;verticalAlign=middle;whiteSpace=wrap;rounded=0;" parent="1" vertex="1">
          <mxGeometry x="115" y="2810" width="60" height="30" as="geometry" />
        </mxCell>
        <mxCell id="oXhFuKc5tQe8eQyPICl8-106" style="edgeStyle=orthogonalEdgeStyle;rounded=0;orthogonalLoop=1;jettySize=auto;html=1;entryX=-0.008;entryY=0.377;entryDx=0;entryDy=0;entryPerimeter=0;" parent="1" source="oXhFuKc5tQe8eQyPICl8-101" target="oXhFuKc5tQe8eQyPICl8-52" edge="1">
          <mxGeometry relative="1" as="geometry">
            <mxPoint x="40" y="2640" as="targetPoint" />
            <Array as="points">
              <mxPoint x="150" y="2900" />
              <mxPoint x="20" y="2900" />
              <mxPoint x="20" y="2650" />
              <mxPoint x="71" y="2650" />
            </Array>
          </mxGeometry>
        </mxCell>
        <mxCell id="oXhFuKc5tQe8eQyPICl8-110" style="edgeStyle=orthogonalEdgeStyle;rounded=0;orthogonalLoop=1;jettySize=auto;html=1;entryX=0;entryY=0.5;entryDx=0;entryDy=0;" parent="1" source="oXhFuKc5tQe8eQyPICl8-92" target="oXhFuKc5tQe8eQyPICl8-52" edge="1">
          <mxGeometry relative="1" as="geometry">
            <Array as="points">
              <mxPoint x="40" y="2806" />
              <mxPoint x="40" y="2657" />
            </Array>
          </mxGeometry>
        </mxCell>
        <mxCell id="oXhFuKc5tQe8eQyPICl8-111" style="edgeStyle=orthogonalEdgeStyle;rounded=0;orthogonalLoop=1;jettySize=auto;html=1;entryX=0;entryY=0.5;entryDx=0;entryDy=0;exitX=0;exitY=0.5;exitDx=0;exitDy=0;" parent="1" source="oXhFuKc5tQe8eQyPICl8-69" target="oXhFuKc5tQe8eQyPICl8-61" edge="1">
          <mxGeometry relative="1" as="geometry">
            <Array as="points">
              <mxPoint x="10" y="2516" />
              <mxPoint x="10" y="2364" />
            </Array>
          </mxGeometry>
        </mxCell>
        <mxCell id="oXhFuKc5tQe8eQyPICl8-113" style="edgeStyle=orthogonalEdgeStyle;rounded=0;orthogonalLoop=1;jettySize=auto;html=1;" parent="1" source="oXhFuKc5tQe8eQyPICl8-3" target="oXhFuKc5tQe8eQyPICl8-38" edge="1">
          <mxGeometry relative="1" as="geometry">
            <Array as="points">
              <mxPoint x="410" y="1310" />
              <mxPoint x="20" y="1310" />
              <mxPoint x="20" y="2050" />
            </Array>
          </mxGeometry>
        </mxCell>
        <mxCell id="oXhFuKc5tQe8eQyPICl8-114" style="edgeStyle=orthogonalEdgeStyle;rounded=0;orthogonalLoop=1;jettySize=auto;html=1;entryX=0.005;entryY=0.238;entryDx=0;entryDy=0;entryPerimeter=0;exitX=0.882;exitY=0.025;exitDx=0;exitDy=0;exitPerimeter=0;" parent="1" source="oXhFuKc5tQe8eQyPICl8-3" target="oXhFuKc5tQe8eQyPICl8-61" edge="1">
          <mxGeometry relative="1" as="geometry">
            <mxPoint x="10" y="2340" as="targetPoint" />
            <mxPoint x="540" y="1330" as="sourcePoint" />
            <Array as="points">
              <mxPoint x="539" y="1320" />
              <mxPoint x="10" y="1320" />
              <mxPoint x="10" y="2350" />
            </Array>
          </mxGeometry>
        </mxCell>
        <mxCell id="oXhFuKc5tQe8eQyPICl8-118" style="edgeStyle=orthogonalEdgeStyle;rounded=0;orthogonalLoop=1;jettySize=auto;html=1;" parent="1" source="oXhFuKc5tQe8eQyPICl8-21" target="oXhFuKc5tQe8eQyPICl8-38" edge="1">
          <mxGeometry relative="1" as="geometry">
            <mxPoint x="670" y="1880" as="sourcePoint" />
            <mxPoint x="510" y="2110" as="targetPoint" />
            <Array as="points">
              <mxPoint x="670" y="2120" />
              <mxPoint x="100" y="2120" />
            </Array>
          </mxGeometry>
        </mxCell>
        <mxCell id="oXhFuKc5tQe8eQyPICl8-119" style="edgeStyle=orthogonalEdgeStyle;rounded=0;orthogonalLoop=1;jettySize=auto;html=1;entryX=0;entryY=0.5;entryDx=0;entryDy=0;" parent="1" source="FqqwUGE8YhEeq_kceWww-2" target="OrxpgzfxHumzW-EcyNMt-38" edge="1">
          <mxGeometry relative="1" as="geometry" />
        </mxCell>
        <mxCell id="oXhFuKc5tQe8eQyPICl8-120" style="edgeStyle=orthogonalEdgeStyle;rounded=0;orthogonalLoop=1;jettySize=auto;html=1;entryX=0.5;entryY=1;entryDx=0;entryDy=0;" parent="1" target="OrxpgzfxHumzW-EcyNMt-38" edge="1">
          <mxGeometry relative="1" as="geometry">
            <mxPoint x="770" y="130" as="sourcePoint" />
            <Array as="points">
              <mxPoint x="770" y="180" />
              <mxPoint x="75" y="180" />
            </Array>
          </mxGeometry>
        </mxCell>
        <mxCell id="oXhFuKc5tQe8eQyPICl8-125" style="edgeStyle=orthogonalEdgeStyle;rounded=0;orthogonalLoop=1;jettySize=auto;html=1;" parent="1" source="oXhFuKc5tQe8eQyPICl8-33" edge="1">
          <mxGeometry relative="1" as="geometry">
            <mxPoint x="40" y="1840" as="targetPoint" />
            <Array as="points">
              <mxPoint x="40" y="1946" />
              <mxPoint x="40" y="1886" />
              <mxPoint x="41" y="1850" />
            </Array>
          </mxGeometry>
        </mxCell>
        <mxCell id="oXhFuKc5tQe8eQyPICl8-126" style="edgeStyle=orthogonalEdgeStyle;rounded=0;orthogonalLoop=1;jettySize=auto;html=1;entryX=0.25;entryY=1;entryDx=0;entryDy=0;exitX=0.913;exitY=0.968;exitDx=0;exitDy=0;exitPerimeter=0;" parent="1" source="oXhFuKc5tQe8eQyPICl8-33" target="OrxpgzfxHumzW-EcyNMt-38" edge="1">
          <mxGeometry relative="1" as="geometry">
            <mxPoint x="290" y="1946" as="sourcePoint" />
            <mxPoint x="50" y="160" as="targetPoint" />
            <Array as="points">
              <mxPoint x="259" y="1990" />
              <mxPoint x="740" y="1990" />
              <mxPoint x="740" y="170" />
              <mxPoint x="53" y="170" />
            </Array>
          </mxGeometry>
        </mxCell>
        <mxCell id="oXhFuKc5tQe8eQyPICl8-130" style="edgeStyle=orthogonalEdgeStyle;rounded=0;orthogonalLoop=1;jettySize=auto;html=1;entryX=0;entryY=0.5;entryDx=0;entryDy=0;" parent="1" source="FqqwUGE8YhEeq_kceWww-33" target="FqqwUGE8YhEeq_kceWww-27" edge="1">
          <mxGeometry relative="1" as="geometry">
            <Array as="points">
              <mxPoint x="32" y="1212" />
              <mxPoint x="32" y="780" />
            </Array>
          </mxGeometry>
        </mxCell>
        <mxCell id="oXhFuKc5tQe8eQyPICl8-131" style="edgeStyle=orthogonalEdgeStyle;rounded=0;orthogonalLoop=1;jettySize=auto;html=1;" parent="1" source="FqqwUGE8YhEeq_kceWww-51" edge="1">
          <mxGeometry relative="1" as="geometry">
            <mxPoint x="50" y="760" as="targetPoint" />
            <Array as="points">
              <mxPoint x="20" y="1058" />
              <mxPoint x="20" y="760" />
            </Array>
          </mxGeometry>
        </mxCell>
        <mxCell id="oXhFuKc5tQe8eQyPICl8-132" style="edgeStyle=orthogonalEdgeStyle;rounded=0;orthogonalLoop=1;jettySize=auto;html=1;entryX=0.75;entryY=1;entryDx=0;entryDy=0;exitX=0.807;exitY=-0.036;exitDx=0;exitDy=0;exitPerimeter=0;" parent="1" source="FqqwUGE8YhEeq_kceWww-51" target="OrxpgzfxHumzW-EcyNMt-38" edge="1">
          <mxGeometry relative="1" as="geometry">
            <mxPoint x="240" y="1020" as="sourcePoint" />
            <Array as="points">
              <mxPoint x="235" y="1020" />
              <mxPoint x="720" y="1020" />
              <mxPoint x="720" y="160" />
              <mxPoint x="97" y="160" />
            </Array>
          </mxGeometry>
        </mxCell>
        <mxCell id="oXhFuKc5tQe8eQyPICl8-133" style="edgeStyle=orthogonalEdgeStyle;rounded=0;orthogonalLoop=1;jettySize=auto;html=1;entryX=0.005;entryY=1;entryDx=0;entryDy=0;entryPerimeter=0;" parent="1" source="oXhFuKc5tQe8eQyPICl8-14" target="oXhFuKc5tQe8eQyPICl8-3" edge="1">
          <mxGeometry relative="1" as="geometry">
            <mxPoint x="50" y="1420" as="targetPoint" />
            <Array as="points">
              <mxPoint x="40" y="1507" />
              <mxPoint x="40" y="1450" />
              <mxPoint x="50" y="1450" />
            </Array>
          </mxGeometry>
        </mxCell>
        <mxCell id="oXhFuKc5tQe8eQyPICl8-139" style="edgeStyle=orthogonalEdgeStyle;rounded=0;orthogonalLoop=1;jettySize=auto;html=1;entryX=0.873;entryY=1.064;entryDx=0;entryDy=0;entryPerimeter=0;" parent="1" source="FqqwUGE8YhEeq_kceWww-6" target="OrxpgzfxHumzW-EcyNMt-38" edge="1">
          <mxGeometry relative="1" as="geometry">
            <Array as="points">
              <mxPoint x="260" y="330" />
              <mxPoint x="370" y="330" />
              <mxPoint x="370" y="190" />
              <mxPoint x="109" y="190" />
            </Array>
          </mxGeometry>
        </mxCell>
        <mxCell id="oXhFuKc5tQe8eQyPICl8-140" style="edgeStyle=orthogonalEdgeStyle;rounded=0;orthogonalLoop=1;jettySize=auto;html=1;" parent="1" source="FqqwUGE8YhEeq_kceWww-37" edge="1">
          <mxGeometry relative="1" as="geometry">
            <mxPoint x="60" y="810" as="targetPoint" />
            <Array as="points">
              <mxPoint x="40" y="918" />
              <mxPoint x="40" y="856" />
              <mxPoint x="61" y="856" />
              <mxPoint x="61" y="820" />
            </Array>
          </mxGeometry>
        </mxCell>
        <mxCell id="oXhFuKc5tQe8eQyPICl8-141" style="edgeStyle=orthogonalEdgeStyle;rounded=0;orthogonalLoop=1;jettySize=auto;html=1;" parent="1" source="FqqwUGE8YhEeq_kceWww-27" edge="1">
          <mxGeometry relative="1" as="geometry">
            <mxPoint x="120" y="1690" as="targetPoint" />
            <Array as="points">
              <mxPoint x="710" y="780" />
              <mxPoint x="710" y="1720" />
              <mxPoint x="120" y="1720" />
            </Array>
          </mxGeometry>
        </mxCell>
        <mxCell id="oXhFuKc5tQe8eQyPICl8-142" style="edgeStyle=orthogonalEdgeStyle;rounded=0;orthogonalLoop=1;jettySize=auto;html=1;entryX=0.069;entryY=1.077;entryDx=0;entryDy=0;entryPerimeter=0;" parent="1" source="FqqwUGE8YhEeq_kceWww-43" target="FqqwUGE8YhEeq_kceWww-6" edge="1">
          <mxGeometry relative="1" as="geometry">
            <mxPoint x="70" y="422.3529411764706" as="targetPoint" />
            <Array as="points">
              <mxPoint x="410" y="1600" />
              <mxPoint x="780" y="1600" />
              <mxPoint x="780" y="450" />
              <mxPoint x="71" y="450" />
              <mxPoint x="71" y="422" />
            </Array>
          </mxGeometry>
        </mxCell>
        <mxCell id="oXhFuKc5tQe8eQyPICl8-145" style="edgeStyle=orthogonalEdgeStyle;rounded=0;orthogonalLoop=1;jettySize=auto;html=1;" parent="1" source="FqqwUGE8YhEeq_kceWww-43" edge="1">
          <mxGeometry relative="1" as="geometry">
            <mxPoint x="100" y="810" as="targetPoint" />
            <Array as="points">
              <mxPoint x="680" y="1659" />
              <mxPoint x="680" y="840" />
              <mxPoint x="101" y="840" />
              <mxPoint x="101" y="820" />
            </Array>
          </mxGeometry>
        </mxCell>
        <mxCell id="oXhFuKc5tQe8eQyPICl8-147" style="edgeStyle=orthogonalEdgeStyle;rounded=0;orthogonalLoop=1;jettySize=auto;html=1;entryX=0;entryY=0.769;entryDx=0;entryDy=0;entryPerimeter=0;" parent="1" source="FqqwUGE8YhEeq_kceWww-22" target="FqqwUGE8YhEeq_kceWww-13" edge="1">
          <mxGeometry relative="1" as="geometry">
            <Array as="points">
              <mxPoint x="30" y="650" />
              <mxPoint x="30" y="540" />
            </Array>
          </mxGeometry>
        </mxCell>
        <mxCell id="oXhFuKc5tQe8eQyPICl8-148" style="edgeStyle=orthogonalEdgeStyle;rounded=0;orthogonalLoop=1;jettySize=auto;html=1;" parent="1" source="FqqwUGE8YhEeq_kceWww-33" edge="1">
          <mxGeometry relative="1" as="geometry">
            <mxPoint x="130" y="560" as="targetPoint" />
            <Array as="points">
              <mxPoint x="570" y="1212" />
              <mxPoint x="570" y="590" />
              <mxPoint x="130" y="590" />
            </Array>
          </mxGeometry>
        </mxCell>
      </root>
    </mxGraphModel>
  </diagram>
</mxfile>
